- 
http://www.Speed.Cd 
       
http://www.Speed.Cd       the fast  and The Hottest Private Tracker on the net

Please Seed back to make the speed Faster!!!

and don't forget to visit      ...... http://www. Speed.Cd..........
-[img]http://img861.imageshack.us/img861/9756/nostrings.jpg[/img]

[color=blue][size=5][b]No.Strings.Attached.2011.BDRip.XVID.AC3.HQ.Hive-CM8[/b][/size][/color]


[b]Thx Hive

CM8 Doing It Right The First Time :D


Source Bluray

Video: 720x304 @bitrate 1800 2pass
Audio: DTS to AC3 5.1 @448
Sample: yes included
Subs: yes english in srt /subs[/b]


[url]http://www.imdb.com/title/tt1411238/[/url]


General
Complete name                    : No.Strings.Attached.2011.BDRip.XVID.AC3.HQ.Hive-CM8.avi
Format                           : AVI
Format/Info                      : Audio Video Interleave
File size                        : 1.70 GiB
Duration                         : 1h 47mn
Overall bit rate                 : 2 259 Kbps
Writing application              : Nandub v1.0rc2
Writing library                  : Nandub build 1853/release

Video
ID                               : 0
Format                           : MPEG-4 Visual
Format profile                   : Advanced Simple@L5
Format settings, BVOP            : Yes
Format settings, QPel            : Yes
Format settings, GMC             : No warppoints
Format settings, Matrix          : Default (H.263)
Muxing mode                      : Packed bitstream
Codec ID                         : XVID
Codec ID/Hint                    : XviD
Duration                         : 1h 47mn
Bit rate                         : 1 802 Kbps
Width                            : 720 pixels
Height                           : 304 pixels
Display aspect ratio             : 2.40:1
Frame rate                       : 23.976 fps
Color space                      : YUV
Chroma subsampling               : 4:2:0
Bit depth                        : 8 bits
Scan type                        : Progressive
Bits/(Pixel*Frame)               : 0.343
Stream size                      : 1.36 GiB (80%)
Writing library                  : XviD 1.2.1 (UTC 2008-12-04)

Audio
ID                               : 1
Format                           : AC-3
Format/Info                      : Audio Coding 3
Mode extension                   : CM (complete main)
Codec ID                         : 2000
Duration                         : 1h 47mn
Bit rate mode                    : Constant
Bit rate                         : 448 Kbps
Channel(s)                       : 6 channels
Channel positions                : Front: L C R, Side: L R, LFE
Sampling rate                    : 48.0 KHz
Bit depth                        : 16 bits
Stream size                      : 346 MiB (20%)
Alignment                        : Split accross interleaves
Interleave, duration             : 42 ms (1.00 video frame)
Interleave, preload duration     : 500 ms


Natalie Portman  - 'Emma'
Ashton Kutcher - 'Adam'
Cary Elwes - 'Dr Metzner'
Kevin Kline - 'Alvin'
Greta Gerwig - 'Patrice'
Lake Bell - 'Lucy'
Olivia Thirlby - 'Katie'
Chris Ludacris Bridges - 'Wallace'
Jake Johnson - 'Eli'
Mindy Kaling - 'Shira'
Ophelia Lovibond - 'Vanessa'


A guy and girl try to keep their relationship strictly physical,but it's not 
long before they learn that they want something more. 


[img]http://img197.imageshack.us/img197/4162/40250712.png[/img]
[img]http://img251.imageshack.us/img251/423/nonob.png[/img]
[img]http://img171.imageshack.us/img171/2482/nononox.png[/img]
[img]http://img96.imageshack.us/img96/535/nononono.png[/img]
[img]http://img854.imageshack.us/img854/6490/nonononono.png[/img]
[img]http://img31.imageshack.us/img31/48/nononononono.png[/img]





Greetz

ViSiON,LUSi,SANTi,MAGNET,THC,T0XiCiNK,LKRG,IMAGiNE,WBZ,FLAWL3SS,NOVA
Vik,Rapeseed,D2U,SAFC,goldadvance,MEMORY100,KaN1vE,Unevano,Pinnz,Wayne,Mr Hive
and all P2P groups 
Great Work Guys :D

CM8@hushmail.com